<svg xmlns="http://www.w3.org/2000/svg" width="720" height="960" viewBox="0 0 720 960" role="img" aria-label="BraceFrame · Começa o teu diário">
  <rect width="720" height="960" fill="#ffffff"/>
  <rect width="720" height="8" fill="#ff5a4a"/>
  <text x="360" y="160" text-anchor="middle" font-family="-apple-system, BlinkMacSystemFont, Inter, Helvetica, Arial, sans-serif" font-size="40" font-weight="750" fill="#111111">Começa o teu diário</text>
  <text x="360" y="202" text-anchor="middle" font-family="-apple-system, BlinkMacSystemFont, Inter, Helvetica, Arial, sans-serif" font-size="18" font-weight="500" fill="#8e8e93">BraceFrame · o teu sorriso em curso</text>
  <rect x="160" y="280" width="400" height="400" rx="20" fill="#ffffff" stroke="#e5e5ea"/>
  <!-- Placeholder QR mark  replace with clinic URL when hosted on evob.org -->
  <g transform="translate(196 316)" fill="#111111">
    <rect width="72" height="72"/>
    <rect x="14" y="14" width="44" height="44" fill="#ffffff"/>
    <rect x="24" y="24" width="24" height="24"/>
    <rect x="256" width="72" height="72"/>
    <rect x="270" y="14" width="44" height="44" fill="#ffffff"/>
    <rect x="280" y="24" width="24" height="24"/>
    <rect y="256" width="72" height="72"/>
    <rect x="14" y="270" width="44" height="44" fill="#ffffff"/>
    <rect x="24" y="280" width="24" height="24"/>
    <rect x="96" y="0" width="24" height="24"/>
    <rect x="136" y="0" width="24" height="48"/>
    <rect x="184" y="16" width="24" height="24"/>
    <rect x="96" y="56" width="48" height="24"/>
    <rect x="168" y="56" width="24" height="24"/>
    <rect x="216" y="48" width="24" height="40"/>
    <rect x="0" y="96" width="24" height="48"/>
    <rect x="40" y="112" width="40" height="24"/>
    <rect x="96" y="96" width="24" height="72"/>
    <rect x="136" y="104" width="56" height="24"/>
    <rect x="208" y="96" width="24" height="24"/>
    <rect x="248" y="112" width="24" height="40"/>
    <rect x="288" y="96" width="40" height="24"/>
    <rect x="96" y="184" width="72" height="24"/>
    <rect x="184" y="168" width="24" height="56"/>
    <rect x="224" y="184" width="48" height="24"/>
    <rect x="288" y="168" width="24" height="40"/>
    <rect x="96" y="224" width="24" height="40"/>
    <rect x="136" y="232" width="24" height="24"/>
    <rect x="176" y="240" width="40" height="24"/>
    <rect x="232" y="224" width="24" height="48"/>
    <rect x="272" y="208" width="24" height="24"/>
    <rect x="304" y="224" width="24" height="24"/>
    <rect x="208" y="280" width="24" height="48"/>
    <rect x="248" y="296" width="40" height="24"/>
    <rect x="160" y="296" width="24" height="32"/>
    <rect x="112" y="296" width="24" height="24"/>
  </g>
  <circle cx="292" cy="860" r="5" fill="#ff5a4a"/>
  <text x="378" y="866" text-anchor="middle" font-family="-apple-system, BlinkMacSystemFont, Inter, Helvetica, Arial, sans-serif" font-size="16" font-weight="500" fill="#8e8e93">Go Smile · no dia da colocação</text>
</svg>
